<svg width="128" height="128" viewBox="0 0 128 128" fill="none" xmlns="http://www.w3.org/2000/svg">
<rect width="128" height="128" rx="28" fill="url(#paint0_linear_1456_357)"/>
<path d="M0 45.5111C0 29.5807 0 21.6155 3.10026 15.5309C5.82732 10.1788 10.1788 5.82732 15.5309 3.10026C21.6155 0 29.5807 0 45.5111 0H82.4889C98.4193 0 106.384 0 112.469 3.10026C117.821 5.82732 122.173 10.1788 124.9 15.5309C128 21.6155 128 29.5807 128 45.5111V82.4889C128 98.4193 128 106.384 124.9 112.469C122.173 117.821 117.821 122.173 112.469 124.9C106.384 128 98.4193 128 82.4889 128H45.5111C29.5807 128 21.6155 128 15.5309 124.9C10.1788 122.173 5.82732 117.821 3.10026 112.469C0 106.384 0 98.4193 0 82.4889V45.5111Z" fill="#EAEAEA"/>
<path d="M0 45.5111C0 29.5807 0 21.6155 3.10026 15.5309C5.82732 10.1788 10.1788 5.82732 15.5309 3.10026C21.6155 0 29.5807 0 45.5111 0H82.4889C98.4193 0 106.384 0 112.469 3.10026C117.821 5.82732 122.173 10.1788 124.9 15.5309C128 21.6155 128 29.5807 128 45.5111V82.4889C128 98.4193 128 106.384 124.9 112.469C122.173 117.821 117.821 122.173 112.469 124.9C106.384 128 98.4193 128 82.4889 128H45.5111C29.5807 128 21.6155 128 15.5309 124.9C10.1788 122.173 5.82732 117.821 3.10026 112.469C0 106.384 0 98.4193 0 82.4889V45.5111Z" fill="url(#paint1_radial_1456_357)"/>
<path d="M0 45.5111C0 29.5807 0 21.6155 3.10026 15.5309C5.82732 10.1788 10.1788 5.82732 15.5309 3.10026C21.6155 0 29.5807 0 45.5111 0H82.4889C98.4193 0 106.384 0 112.469 3.10026C117.821 5.82732 122.173 10.1788 124.9 15.5309C128 21.6155 128 29.5807 128 45.5111V82.4889C128 98.4193 128 106.384 124.9 112.469C122.173 117.821 117.821 122.173 112.469 124.9C106.384 128 98.4193 128 82.4889 128H45.5111C29.5807 128 21.6155 128 15.5309 124.9C10.1788 122.173 5.82732 117.821 3.10026 112.469C0 106.384 0 98.4193 0 82.4889V45.5111Z" fill="url(#paint2_radial_1456_357)"/>
<path d="M0 45.5111C0 29.5807 0 21.6155 3.10026 15.5309C5.82732 10.1788 10.1788 5.82732 15.5309 3.10026C21.6155 0 29.5807 0 45.5111 0H82.4889C98.4193 0 106.384 0 112.469 3.10026C117.821 5.82732 122.173 10.1788 124.9 15.5309C128 21.6155 128 29.5807 128 45.5111V82.4889C128 98.4193 128 106.384 124.9 112.469C122.173 117.821 117.821 122.173 112.469 124.9C106.384 128 98.4193 128 82.4889 128H45.5111C29.5807 128 21.6155 128 15.5309 124.9C10.1788 122.173 5.82732 117.821 3.10026 112.469C0 106.384 0 98.4193 0 82.4889V45.5111Z" fill="url(#paint3_radial_1456_357)"/>
<path d="M0 45.5111C0 29.5807 0 21.6155 3.10026 15.5309C5.82732 10.1788 10.1788 5.82732 15.5309 3.10026C21.6155 0 29.5807 0 45.5111 0H82.4889C98.4193 0 106.384 0 112.469 3.10026C117.821 5.82732 122.173 10.1788 124.9 15.5309C128 21.6155 128 29.5807 128 45.5111V82.4889C128 98.4193 128 106.384 124.9 112.469C122.173 117.821 117.821 122.173 112.469 124.9C106.384 128 98.4193 128 82.4889 128H45.5111C29.5807 128 21.6155 128 15.5309 124.9C10.1788 122.173 5.82732 117.821 3.10026 112.469C0 106.384 0 98.4193 0 82.4889V45.5111Z" fill="url(#paint4_radial_1456_357)"/>
<path d="M0 45.5111C0 29.5807 0 21.6155 3.10026 15.5309C5.82732 10.1788 10.1788 5.82732 15.5309 3.10026C21.6155 0 29.5807 0 45.5111 0H82.4889C98.4193 0 106.384 0 112.469 3.10026C117.821 5.82732 122.173 10.1788 124.9 15.5309C128 21.6155 128 29.5807 128 45.5111V82.4889C128 98.4193 128 106.384 124.9 112.469C122.173 117.821 117.821 122.173 112.469 124.9C106.384 128 98.4193 128 82.4889 128H45.5111C29.5807 128 21.6155 128 15.5309 124.9C10.1788 122.173 5.82732 117.821 3.10026 112.469C0 106.384 0 98.4193 0 82.4889V45.5111Z" fill="url(#paint5_radial_1456_357)"/>
<path d="M0 45.5111C0 29.5807 0 21.6155 3.10026 15.5309C5.82732 10.1788 10.1788 5.82732 15.5309 3.10026C21.6155 0 29.5807 0 45.5111 0H82.4889C98.4193 0 106.384 0 112.469 3.10026C117.821 5.82732 122.173 10.1788 124.9 15.5309C128 21.6155 128 29.5807 128 45.5111V82.4889C128 98.4193 128 106.384 124.9 112.469C122.173 117.821 117.821 122.173 112.469 124.9C106.384 128 98.4193 128 82.4889 128H45.5111C29.5807 128 21.6155 128 15.5309 124.9C10.1788 122.173 5.82732 117.821 3.10026 112.469C0 106.384 0 98.4193 0 82.4889V45.5111Z" fill="url(#paint6_radial_1456_357)"/>
<path d="M0 45.5111C0 29.5807 0 21.6155 3.10026 15.5309C5.82732 10.1788 10.1788 5.82732 15.5309 3.10026C21.6155 0 29.5807 0 45.5111 0H82.4889C98.4193 0 106.384 0 112.469 3.10026C117.821 5.82732 122.173 10.1788 124.9 15.5309C128 21.6155 128 29.5807 128 45.5111V82.4889C128 98.4193 128 106.384 124.9 112.469C122.173 117.821 117.821 122.173 112.469 124.9C106.384 128 98.4193 128 82.4889 128H45.5111C29.5807 128 21.6155 128 15.5309 124.9C10.1788 122.173 5.82732 117.821 3.10026 112.469C0 106.384 0 98.4193 0 82.4889V45.5111Z" fill="url(#paint7_radial_1456_357)"/>
<path d="M0 45.5111C0 29.5807 0 21.6155 3.10026 15.5309C5.82732 10.1788 10.1788 5.82732 15.5309 3.10026C21.6155 0 29.5807 0 45.5111 0H82.4889C98.4193 0 106.384 0 112.469 3.10026C117.821 5.82732 122.173 10.1788 124.9 15.5309C128 21.6155 128 29.5807 128 45.5111V82.4889C128 98.4193 128 106.384 124.9 112.469C122.173 117.821 117.821 122.173 112.469 124.9C106.384 128 98.4193 128 82.4889 128H45.5111C29.5807 128 21.6155 128 15.5309 124.9C10.1788 122.173 5.82732 117.821 3.10026 112.469C0 106.384 0 98.4193 0 82.4889V45.5111Z" fill="url(#paint8_radial_1456_357)"/>
<path d="M0 45.5111C0 29.5807 0 21.6155 3.10026 15.5309C5.82732 10.1788 10.1788 5.82732 15.5309 3.10026C21.6155 0 29.5807 0 45.5111 0H82.4889C98.4193 0 106.384 0 112.469 3.10026C117.821 5.82732 122.173 10.1788 124.9 15.5309C128 21.6155 128 29.5807 128 45.5111V82.4889C128 98.4193 128 106.384 124.9 112.469C122.173 117.821 117.821 122.173 112.469 124.9C106.384 128 98.4193 128 82.4889 128H45.5111C29.5807 128 21.6155 128 15.5309 124.9C10.1788 122.173 5.82732 117.821 3.10026 112.469C0 106.384 0 98.4193 0 82.4889V45.5111Z" fill="url(#paint9_radial_1456_357)" style="mix-blend-mode:soft-light"/>
<path d="M0 45.5111C0 29.5807 0 21.6155 3.10026 15.5309C5.82732 10.1788 10.1788 5.82732 15.5309 3.10026C21.6155 0 29.5807 0 45.5111 0H82.4889C98.4193 0 106.384 0 112.469 3.10026C117.821 5.82732 122.173 10.1788 124.9 15.5309C128 21.6155 128 29.5807 128 45.5111V82.4889C128 98.4193 128 106.384 124.9 112.469C122.173 117.821 117.821 122.173 112.469 124.9C106.384 128 98.4193 128 82.4889 128H45.5111C29.5807 128 21.6155 128 15.5309 124.9C10.1788 122.173 5.82732 117.821 3.10026 112.469C0 106.384 0 98.4193 0 82.4889V45.5111Z" fill="black" fill-opacity="0.2"/>
<path d="M0 45.5111C0 29.5807 0 21.6155 3.10026 15.5309C5.82732 10.1788 10.1788 5.82732 15.5309 3.10026C21.6155 0 29.5807 0 45.5111 0H82.4889C98.4193 0 106.384 0 112.469 3.10026C117.821 5.82732 122.173 10.1788 124.9 15.5309C128 21.6155 128 29.5807 128 45.5111V82.4889C128 98.4193 128 106.384 124.9 112.469C122.173 117.821 117.821 122.173 112.469 124.9C106.384 128 98.4193 128 82.4889 128H45.5111C29.5807 128 21.6155 128 15.5309 124.9C10.1788 122.173 5.82732 117.821 3.10026 112.469C0 106.384 0 98.4193 0 82.4889V45.5111Z" fill="url(#paint10_linear_1456_357)"/>
<path d="M79.0801 28.4448H48.9198C46.0577 28.4448 43.6955 28.4447 41.7712 28.602C39.7727 28.7653 37.9355 29.1157 36.2099 29.995C33.5338 31.3585 31.3581 33.5342 29.9945 36.2103C29.1153 37.9359 28.7648 39.7731 28.6015 41.7717C28.4443 43.6959 28.4444 46.0581 28.4444 48.9202V79.0806C28.4444 81.9427 28.4443 84.3049 28.6015 86.2291C28.7648 88.2277 29.1153 90.0648 29.9945 91.7905C31.3581 94.4666 33.5338 96.6423 36.2099 98.0058C37.9355 98.8851 39.7727 99.2355 41.7712 99.3988C43.6955 99.556 46.0576 99.556 48.9197 99.5559H55.1111C57.0747 99.5559 58.6666 97.9641 58.6666 96.0004C58.6666 94.0367 57.0747 92.4448 55.1111 92.4448H49.0666C46.021 92.4448 43.9506 92.4421 42.3503 92.3113C40.7915 92.1839 39.9943 91.9531 39.4382 91.6698C38.1002 90.988 37.0123 89.9001 36.3306 88.5621C36.0472 88.006 35.8164 87.2088 35.689 85.65C35.5583 84.0497 35.5555 81.9793 35.5555 78.9337V49.0671C35.5555 46.0214 35.5583 43.9511 35.689 42.3507C35.8164 40.7919 36.0472 39.9948 36.3306 39.4387C37.0123 38.1006 38.1002 37.0128 39.4382 36.331C39.9943 36.0477 40.7915 35.8168 42.3503 35.6895C43.9506 35.5587 46.021 35.5559 49.0666 35.5559H78.9333C81.9789 35.5559 84.0493 35.5587 85.6496 35.6895C87.2084 35.8168 88.0056 36.0477 88.5617 36.331C89.8997 37.0128 90.9876 38.1006 91.6693 39.4387C91.9527 39.9948 92.1835 40.7919 92.3109 42.3507C92.4416 43.9511 92.4444 46.0214 92.4444 49.0671V55.1115C92.4444 57.0752 94.0363 58.6671 96 58.6671C97.9636 58.6671 99.5555 57.0752 99.5555 55.1115V48.9201C99.5556 46.058 99.5556 43.6959 99.3984 41.7717C99.2351 39.7731 98.8846 37.9359 98.0054 36.2103C96.6418 33.5342 94.4661 31.3585 91.79 29.995C90.0644 29.1157 88.2272 28.7653 86.2287 28.602C84.3044 28.4447 81.9422 28.4448 79.0801 28.4448Z" fill="white"/>
<path d="M66.8177 58.8095L96.3079 68.5738C97.1875 68.8649 98.0603 69.1538 98.7455 69.4506C99.3688 69.7207 100.61 70.2994 101.397 71.574C102.282 73.009 102.436 74.7779 101.813 76.3446C101.26 77.7362 100.137 78.5214 99.5702 78.8954C98.9469 79.3065 98.1373 79.7423 97.3215 80.1813L86.1801 86.1806L80.1808 97.3221C79.7417 98.1379 79.306 98.9474 78.8949 99.5707C78.5209 100.138 77.7357 101.26 76.3441 101.814C74.7774 102.437 73.0085 102.282 71.5735 101.397C70.2988 100.611 69.7201 99.3693 69.4501 98.746C69.1532 98.0608 68.8644 97.188 68.5733 96.3085L58.8091 66.8181C58.5567 66.0564 58.2966 65.2715 58.1415 64.6053C57.9904 63.9562 57.7584 62.745 58.2218 61.4489C58.7597 59.9443 59.9439 58.7601 61.4485 58.2222C62.7446 57.7588 63.9558 57.9908 64.6049 58.1419C65.2711 58.297 66.056 58.5571 66.8177 58.8095Z" fill="white"/>
<defs>
<linearGradient id="paint0_linear_1456_357" x1="64" y1="0" x2="64" y2="128" gradientUnits="userSpaceOnUse">
<stop stop-color="#FB5976"/>
<stop offset="1" stop-color="#FA243B"/>
</linearGradient>
<radialGradient id="paint1_radial_1456_357" cx="0" cy="0" r="1" gradientUnits="userSpaceOnUse" gradientTransform="translate(108.444 109.156) rotate(-132.774) scale(71.2044)">
<stop stop-color="#D42AF6"/>
<stop offset="1" stop-color="#EB78F9" stop-opacity="0"/>
</radialGradient>
<radialGradient id="paint2_radial_1456_357" cx="0" cy="0" r="1" gradientTransform="matrix(44.0889 -50.1333 52.565 44.2549 38.4 103.822)" gradientUnits="userSpaceOnUse">
<stop stop-color="#4DC6FF"/>
<stop offset="1" stop-color="#3963F9" stop-opacity="0"/>
</radialGradient>
<radialGradient id="paint3_radial_1456_357" cx="0" cy="0" r="1" gradientUnits="userSpaceOnUse" gradientTransform="translate(113.422 10.8444) rotate(137.811) scale(105.093)">
<stop stop-color="#F7306E"/>
<stop offset="1" stop-color="#F7306E" stop-opacity="0"/>
</radialGradient>
<radialGradient id="paint4_radial_1456_357" cx="0" cy="0" r="1" gradientTransform="matrix(45.6889 -91.3778 95.0408 44.9862 68.9778 107.022)" gradientUnits="userSpaceOnUse">
<stop stop-color="#33BEFF"/>
<stop offset="1" stop-color="#3963F9" stop-opacity="0"/>
</radialGradient>
<radialGradient id="paint5_radial_1456_357" cx="0" cy="0" r="1" gradientUnits="userSpaceOnUse" gradientTransform="translate(117.067 98.6667) rotate(-146.383) scale(77.3869)">
<stop stop-color="#EC5CF6"/>
<stop offset="1" stop-color="#EB78F9" stop-opacity="0"/>
</radialGradient>
<radialGradient id="paint6_radial_1456_357" cx="0" cy="0" r="1" gradientUnits="userSpaceOnUse" gradientTransform="translate(113.422 10.8444) rotate(137.811) scale(105.093)">
<stop stop-color="#F7306E"/>
<stop offset="1" stop-color="#F7306E" stop-opacity="0"/>
</radialGradient>
<radialGradient id="paint7_radial_1456_357" cx="0" cy="0" r="1" gradientUnits="userSpaceOnUse" gradientTransform="translate(13.5111 22.7556) rotate(47.644) scale(74.9388)">
<stop stop-color="#DE7F12"/>
<stop offset="1" stop-color="#EBA834" stop-opacity="0"/>
</radialGradient>
<radialGradient id="paint8_radial_1456_357" cx="0" cy="0" r="1" gradientUnits="userSpaceOnUse" gradientTransform="translate(14.5778 26.6667) rotate(42.9495) scale(75.5359)">
<stop stop-color="#DE7F12"/>
<stop offset="1" stop-color="#EBA834" stop-opacity="0"/>
</radialGradient>
<radialGradient id="paint9_radial_1456_357" cx="0" cy="0" r="1" gradientTransform="matrix(128 -37.5111 41.4386 130.879 -3.02222 79.2889)" gradientUnits="userSpaceOnUse">
<stop stop-color="#FFF8E4"/>
<stop offset="1" stop-color="#FFF8E4" stop-opacity="0"/>
</radialGradient>
<linearGradient id="paint10_linear_1456_357" x1="64" y1="0" x2="64" y2="128" gradientUnits="userSpaceOnUse">
<stop stop-color="#FB5976"/>
<stop offset="1" stop-color="#FA243B"/>
</linearGradient>
</defs>
</svg>
