<svg width="16" height="16" viewBox="0 0 14 14" fill="none" xmlns="http://www.w3.org/2000/svg"><path d="M1.16675 4.88667C1.16675 4.68232 1.16675 4.58014 1.17527 4.49408C1.25752 3.66403 1.91415 3.00739 2.7442 2.92515C2.83027 2.91663 2.93796 2.91663 3.15334 2.91663C3.23633 2.91663 3.27782 2.91663 3.31306 2.91449C3.76294 2.88725 4.15689 2.6033 4.325 2.18513C4.33816 2.15238 4.35047 2.11546 4.37508 2.04163C4.39969 1.96779 4.412 1.93088 4.42516 1.89813C4.59328 1.47995 4.98722 1.19601 5.43711 1.16876C5.47234 1.16663 5.51125 1.16663 5.58908 1.16663H8.41108C8.48891 1.16663 8.52782 1.16663 8.56306 1.16876C9.01294 1.19601 9.40689 1.47995 9.575 1.89813C9.58816 1.93088 9.60047 1.96779 9.62508 2.04163C9.64969 2.11546 9.662 2.15238 9.67516 2.18513C9.84328 2.6033 10.2372 2.88725 10.6871 2.91449C10.7223 2.91663 10.7638 2.91663 10.8468 2.91663C11.0622 2.91663 11.1699 2.91663 11.256 2.92515C12.086 3.00739 12.7426 3.66403 12.8249 4.49408C12.8334 4.58014 12.8334 4.68232 12.8334 4.88667V9.44996C12.8334 10.4301 12.8334 10.9201 12.6427 11.2944C12.4749 11.6237 12.2072 11.8914 11.8779 12.0592C11.5036 12.25 11.0135 12.25 10.0334 12.25H3.96675C2.98666 12.25 2.49661 12.25 2.12226 12.0592C1.79298 11.8914 1.52527 11.6237 1.35749 11.2944C1.16675 10.9201 1.16675 10.4301 1.16675 9.44996V4.88667Z" stroke="currentColor" stroke-width="0.875" stroke-linecap="round" stroke-linejoin="round"/><path d="M7.00008 9.62496C8.28875 9.62496 9.33341 8.58029 9.33341 7.29163C9.33341 6.00296 8.28875 4.95829 7.00008 4.95829C5.71142 4.95829 4.66675 6.00296 4.66675 7.29163C4.66675 8.58029 5.71142 9.62496 7.00008 9.62496Z" stroke="currentColor" stroke-width="0.875" stroke-linecap="round" stroke-linejoin="round"/></svg>