<svg preserveAspectRatio="none" width="100%" height="100%" overflow="visible" style="display: block;" viewBox="0 0 24 24" fill="none" xmlns="http://www.w3.org/2000/svg">
<g id="Icon" opacity="0.5">
<path id="Icon_2" d="M14.1025 5.50488C14.6067 5.55621 15 5.98232 15 6.5C16.1046 6.5 17 7.39543 17 8.5V16.5L16.9893 16.7041C16.8938 17.6457 16.1457 18.3938 15.2041 18.4893L15 18.5H9L8.7959 18.4893C7.85435 18.3938 7.1062 17.6457 7.01074 16.7041L7 16.5V8.5C7 7.39543 7.89543 6.5 9 6.5C9 5.94772 9.44772 5.5 10 5.5H14L14.1025 5.50488ZM15 7.5C15 8.01768 14.6067 8.44379 14.1025 8.49512L14 8.5H10C9.48232 8.5 9.05621 8.10667 9.00488 7.60254L9 7.5C8.48232 7.5 8.05621 7.89333 8.00488 8.39746L8 8.5V16.5C8 17.0523 8.44772 17.5 9 17.5H15C15.5523 17.5 16 17.0523 16 16.5V8.5C16 7.94772 15.5523 7.5 15 7.5ZM13.5 13.5C13.7761 13.5 14 13.7239 14 14C14 14.2761 13.7761 14.5 13.5 14.5H10.5C10.2239 14.5 10 14.2761 10 14C10 13.7239 10.2239 13.5 10.5 13.5H13.5ZM13.5 10.5C13.7761 10.5 14 10.7239 14 11C14 11.2761 13.7761 11.5 13.5 11.5H10.5C10.2239 11.5 10 11.2761 10 11C10 10.7239 10.2239 10.5 10.5 10.5H13.5ZM10 7.5H14V6.5H10V7.5Z" fill="var(--fill-0, white)"/>
</g>
</svg>
