<svg preserveAspectRatio="none" width="100%" height="100%" overflow="visible" style="display: block;" viewBox="0 0 24 24" fill="none" xmlns="http://www.w3.org/2000/svg">
<g id="Icon" opacity="0.5">
<path id="Vector" fill-rule="evenodd" clip-rule="evenodd" d="M6 12C6 11.934 6.054 11.642 6.313 11.175C6.61165 10.649 6.9894 10.1721 7.433 9.761C8.443 8.816 9.956 8 12 8C14.044 8 15.558 8.816 16.566 9.76C17.074 10.237 17.446 10.74 17.687 11.175C17.945 11.642 18 11.935 18 12C18 12.066 17.945 12.358 17.687 12.825C17.447 13.26 17.074 13.763 16.567 14.239C15.557 15.184 14.044 16 12 16C9.956 16 8.442 15.184 7.434 14.24C6.98996 13.8286 6.61187 13.3514 6.313 12.825C6.055 12.358 6 12.065 6 12ZM5 12C5 10.75 7.333 7 12 7C16.667 7 19 10.75 19 12C19 13.25 16.667 17 12 17C7.333 17 5 13.25 5 12ZM13 12C13 12.2652 12.8946 12.5196 12.7071 12.7071C12.5196 12.8946 12.2652 13 12 13C11.7348 13 11.4804 12.8946 11.2929 12.7071C11.1054 12.5196 11 12.2652 11 12C11 11.7348 11.1054 11.4804 11.2929 11.2929C11.4804 11.1054 11.7348 11 12 11C12.2652 11 12.5196 11.1054 12.7071 11.2929C12.8946 11.4804 13 11.7348 13 12ZM14 12C14 12.5304 13.7893 13.0391 13.4142 13.4142C13.0391 13.7893 12.5304 14 12 14C11.4696 14 10.9609 13.7893 10.5858 13.4142C10.2107 13.0391 10 12.5304 10 12C10 11.4696 10.2107 10.9609 10.5858 10.5858C10.9609 10.2107 11.4696 10 12 10C12.5304 10 13.0391 10.2107 13.4142 10.5858C13.7893 10.9609 14 11.4696 14 12Z" fill="var(--fill-0, white)"/>
</g>
</svg>
