<svg preserveAspectRatio="none" width="100%" height="100%" overflow="visible" style="display: block;" viewBox="0 0 24 24" fill="none" xmlns="http://www.w3.org/2000/svg">
<g id="Icon" opacity="0.5">
<path id="Vector" d="M16.2256 7.07912C16.3219 7.01608 16.4369 6.98809 16.5514 6.99986C16.6658 7.01162 16.7727 7.06242 16.8541 7.14372C16.9356 7.22501 16.9865 7.33186 16.9984 7.44629C17.0104 7.56073 16.9825 7.67578 16.9196 7.77212L16.8546 7.85012L12.7086 11.9971L16.8546 16.1431L16.9196 16.2211C16.9844 16.3173 17.0137 16.4331 17.0026 16.5485C16.9914 16.6639 16.9404 16.7719 16.8584 16.8539C16.7764 16.9359 16.6685 16.9869 16.553 16.998C16.4376 17.0092 16.3218 16.9799 16.2256 16.9151L16.1476 16.8501L12.0016 12.7031L7.85464 16.8501C7.80852 16.8979 7.75334 16.936 7.69234 16.9622C7.63134 16.9884 7.56573 17.0022 7.49934 17.0027C7.43295 17.0033 7.36711 16.9907 7.30566 16.9655C7.24421 16.9404 7.18839 16.9033 7.14144 16.8563C7.0945 16.8094 7.05737 16.7535 7.03223 16.6921C7.00709 16.6306 6.99444 16.5648 6.99501 16.4984C6.99559 16.432 7.00938 16.3664 7.03559 16.3054C7.06179 16.2444 7.09988 16.1892 7.14764 16.1431L11.2946 11.9961L7.14764 7.85012L7.08364 7.77212C7.02116 7.67586 6.99362 7.56106 7.00564 7.44693C7.01765 7.3328 7.06847 7.22625 7.14962 7.1451C7.23077 7.06396 7.33732 7.01313 7.45145 7.00112C7.56558 6.9891 7.68038 7.01664 7.77664 7.07912L7.85464 7.14312L12.0016 11.2901L16.1476 7.14312L16.2256 7.07912Z" fill="var(--fill-0, white)"/>
</g>
</svg>
