<svg preserveAspectRatio="none" width="100%" height="100%" overflow="visible" style="display: block;" viewBox="0 0 24 24" fill="none" xmlns="http://www.w3.org/2000/svg">
<g id="Icon">
<rect width="24" height="24" rx="6" fill="var(--fill-0, #0094FF)" fill-opacity="0.24"/>
<path id="Vector" fill-rule="evenodd" clip-rule="evenodd" d="M5.50002 8.50562C5.77602 8.50562 6.03302 8.72862 6.14102 8.98262C6.18502 9.08462 6.24102 9.20062 6.31302 9.33062C6.55302 9.76562 6.92602 10.2686 7.43402 10.7446C8.44202 11.6896 9.95402 12.5056 12 12.5056C14.045 12.5056 15.558 11.6896 16.566 10.7456C17.074 10.2686 17.446 9.76562 17.687 9.33062C17.759 9.20062 17.815 9.08462 17.858 8.98262C17.968 8.72862 18.224 8.50562 18.5 8.50562C18.776 8.50562 18.995 8.73062 18.917 8.99562C18.715 9.67761 18.147 10.6456 17.212 11.5096L18.354 12.6516C18.4479 12.7455 18.5007 12.8728 18.5007 13.0056C18.5007 13.1384 18.4479 13.2657 18.354 13.3596C18.2601 13.4535 18.1328 13.5062 18 13.5062C17.8672 13.5062 17.7399 13.4535 17.646 13.3596L16.429 12.1416C15.8481 12.5497 15.2116 12.8723 14.539 13.0996L14.985 14.8846C15.0137 15.012 14.9914 15.1456 14.9228 15.2568C14.8543 15.368 14.745 15.4479 14.6183 15.4795C14.4915 15.5111 14.3575 15.4919 14.2447 15.426C14.132 15.36 14.0496 15.2526 14.015 15.1266L13.572 13.3566C13.0541 13.457 12.5276 13.5069 12 13.5056C11.4724 13.5066 10.9459 13.4564 10.428 13.3556L9.98502 15.1266C9.95048 15.2526 9.86803 15.36 9.7553 15.426C9.64257 15.4919 9.50851 15.5111 9.38179 15.4795C9.25507 15.4479 9.14575 15.368 9.07721 15.2568C9.00867 15.1456 8.98635 15.012 9.01502 14.8846L9.46102 13.0996C8.78844 12.8723 8.15195 12.5497 7.57102 12.1416L6.35402 13.3596C6.30753 13.4061 6.25235 13.443 6.19161 13.4681C6.13087 13.4933 6.06577 13.5062 6.00002 13.5062C5.93428 13.5062 5.86918 13.4933 5.80844 13.4681C5.7477 13.443 5.69251 13.4061 5.64602 13.3596C5.59953 13.3131 5.56266 13.2579 5.5375 13.1972C5.51234 13.1365 5.49939 13.0714 5.49939 13.0056C5.49939 12.9399 5.51234 12.8748 5.5375 12.814C5.56266 12.7533 5.59953 12.6981 5.64602 12.6516L6.78802 11.5096C5.85302 10.6456 5.28502 9.67761 5.08302 8.99562C5.00502 8.73062 5.22302 8.50562 5.50002 8.50562Z" fill="var(--fill-0, #0094FF)"/>
</g>
</svg>
