<svg width="13" height="13" viewBox="0 0 13 13" fill="none" xmlns="http://www.w3.org/2000/svg">
<path d="M10.7559 3.66797C11.0312 3.68646 11.24 3.92478 11.2217 4.2002L10.915 8.7998C10.857 9.671 10.8106 10.3735 10.7012 10.9229C10.5889 11.4862 10.3982 11.9573 10.0039 12.3262C9.60964 12.695 9.12713 12.8542 8.55762 12.9287C8.00216 13.0014 7.29801 13 6.4248 13H5.90918C5.03589 13 4.33186 13.0014 3.77637 12.9287C3.20681 12.8542 2.72439 12.6949 2.33008 12.3262C1.93579 11.9573 1.74509 11.4862 1.63281 10.9229C1.52337 10.3735 1.47702 9.67099 1.41895 8.7998L1.1123 4.2002C1.09397 3.9247 1.30262 3.68634 1.57812 3.66797C1.85363 3.64964 2.09198 3.85828 2.11035 4.13379L2.41699 8.7334C2.47688 9.63169 2.51959 10.2572 2.61328 10.7275C2.70417 11.1835 2.83146 11.4252 3.01367 11.5957C3.19591 11.766 3.44525 11.8772 3.90625 11.9375C4.38184 11.9997 5.00868 12 5.90918 12H6.4248C7.32525 12 7.95217 11.9997 8.42773 11.9375C8.88873 11.8772 9.13809 11.7661 9.32031 11.5957C9.50253 11.4252 9.62981 11.1836 9.7207 10.7275C9.8144 10.2572 9.85711 9.6317 9.91699 8.7334L10.2236 4.13379C10.242 3.85826 10.4803 3.6496 10.7559 3.66797ZM4.4502 5.33594C4.72479 5.3085 4.96935 5.5087 4.99707 5.7832L5.33105 9.11621C5.35853 9.39097 5.15756 9.63657 4.88281 9.66406C4.60816 9.69137 4.36341 9.4905 4.33594 9.21582L4.00293 5.88281C3.97569 5.60824 4.17561 5.36345 4.4502 5.33594ZM7.88281 5.33594C8.15745 5.3634 8.3583 5.6082 8.33105 5.88281L7.99707 9.21582C7.96959 9.49059 7.72497 9.69154 7.4502 9.66406C7.17546 9.63655 6.97545 9.39096 7.00293 9.11621L7.33594 5.7832C7.36363 5.50876 7.6083 5.30863 7.88281 5.33594ZM7.2627 0C7.41993 0 7.55561 -0.00172584 7.68262 0.0185547C8.15139 0.0934693 8.5571 0.386561 8.77637 0.807617C8.83566 0.921596 8.87709 1.05022 8.92676 1.19922L8.99121 1.39355C9.00377 1.43124 9.00769 1.44175 9.01074 1.4502C9.12751 1.77289 9.43037 1.99131 9.77344 2H11.833C12.1091 2 12.3329 2.22393 12.333 2.5C12.333 2.77614 12.1091 3 11.833 3H0.5C0.223858 3 0 2.77614 0 2.5C8.57951e-05 2.22393 0.223911 2 0.5 2H2.56055C2.9034 1.99113 3.20552 1.7727 3.32227 1.4502C3.32532 1.44174 3.32925 1.4312 3.3418 1.39355L3.40625 1.19922C3.4559 1.05027 3.49737 0.921568 3.55664 0.807617C3.77587 0.386639 4.18173 0.0935364 4.65039 0.0185547C4.7774 -0.00172584 4.91308 0 5.07031 0H7.2627ZM4.80859 1.00586C4.65232 1.03081 4.51744 1.12917 4.44434 1.26953C4.43049 1.29618 4.41608 1.33378 4.35547 1.51562L4.29102 1.70898C4.28014 1.74162 4.2711 1.7668 4.2627 1.79004C4.2364 1.86274 4.20446 1.93237 4.16992 2H8.16309C8.12855 1.93237 8.09661 1.86274 8.07031 1.79004C8.06192 1.76683 8.05381 1.7415 8.04297 1.70898L7.97754 1.51562C7.91714 1.33444 7.90345 1.29616 7.88965 1.26953C7.81655 1.12917 7.68069 1.03081 7.52441 1.00586C7.49477 1.00116 7.45413 1 7.2627 1H5.07031C4.87831 1 4.83827 1.00113 4.80859 1.00586Z" opacity="0.5" fill="var(--fill-0, white)"/>
</svg>
