<svg width="20" height="20" viewBox="0 0 20 20" fill="none" xmlns="http://www.w3.org/2000/svg"><path d="M9.99996 1.25H7.08329C5.47246 1.25 4.16663 2.55584 4.16663 4.16667C4.16663 5.7775 5.47246 7.08333 7.08329 7.08333M9.99996 1.25V7.08333M9.99996 1.25H12.9166C14.5275 1.25 15.8333 2.55584 15.8333 4.16667C15.8333 5.7775 14.5275 7.08333 12.9166 7.08333M9.99996 7.08333H7.08329M9.99996 7.08333V12.9167M9.99996 7.08333H12.9166M7.08329 7.08333C5.47246 7.08333 4.16663 8.38917 4.16663 10C4.16663 11.6108 5.47246 12.9167 7.08329 12.9167M9.99996 12.9167H7.08329M9.99996 12.9167V15.8333C9.99996 17.4442 8.69412 18.75 7.08329 18.75C5.47246 18.75 4.16663 17.4442 4.16663 15.8333C4.16663 14.2225 5.47246 12.9167 7.08329 12.9167M12.9166 7.08333C14.5275 7.08333 15.8333 8.38917 15.8333 10C15.8333 11.6108 14.5275 12.9167 12.9166 12.9167C11.3058 12.9167 9.99996 11.6108 9.99996 10C9.99996 8.38917 11.3058 7.08333 12.9166 7.08333Z" stroke="currentColor" stroke-width="1.25" stroke-linecap="round" stroke-linejoin="round"/></svg>