<svg preserveAspectRatio="none" width="100%" height="100%" overflow="visible" style="display: block;" viewBox="0 0 24 24" fill="none" xmlns="http://www.w3.org/2000/svg">
<g id="Select matching layers">
<path id="Icon" d="M5.24951 16.75C5.52565 16.75 5.74951 16.9739 5.74951 17.25V17.833C5.74951 17.8788 5.78683 17.9166 5.83252 17.917H6.4165C6.6925 17.9172 6.9165 18.141 6.9165 18.417C6.91633 18.6929 6.69239 18.9168 6.4165 18.917H5.83252C5.23454 18.9166 4.74951 18.4311 4.74951 17.833V17.25C4.74951 16.974 4.97355 16.7502 5.24951 16.75ZM9.9165 16.75C10.1925 16.7502 10.4165 16.974 10.4165 17.25V17.833C10.4165 18.4313 9.93083 18.917 9.33252 18.917H8.74951C8.47366 18.9168 8.24969 18.6929 8.24951 18.417C8.24951 18.141 8.47355 17.9172 8.74951 17.917H9.33252C9.37854 17.917 9.4165 17.879 9.4165 17.833V17.25C9.4165 16.974 9.64054 16.7502 9.9165 16.75ZM13.4165 16.75C13.6926 16.75 13.9165 16.9739 13.9165 17.25V17.833C13.9165 17.8789 13.9536 17.9168 13.9995 17.917H14.5835C14.8595 17.9172 15.0835 18.141 15.0835 18.417C15.0833 18.6929 14.8594 18.9168 14.5835 18.917H13.9995C13.4014 18.9168 12.9165 18.4312 12.9165 17.833V17.25C12.9165 16.9739 13.1404 16.75 13.4165 16.75ZM18.0835 16.75C18.3595 16.7502 18.5835 16.974 18.5835 17.25V17.833C18.5835 18.4313 18.0978 18.917 17.4995 18.917H16.9165C16.6405 18.917 16.4167 18.693 16.4165 18.417C16.4165 18.1408 16.6404 17.917 16.9165 17.917H17.4995C17.5455 17.917 17.5835 17.879 17.5835 17.833V17.25C17.5835 16.9739 17.8074 16.75 18.0835 16.75ZM6.4165 13.25C6.6925 13.2502 6.9165 13.474 6.9165 13.75C6.9165 14.026 6.6925 14.2498 6.4165 14.25H5.83252C5.78694 14.2504 5.74969 14.2874 5.74951 14.333V14.917L5.73975 15.0176C5.69307 15.2454 5.49109 15.417 5.24951 15.417C5.00808 15.4168 4.8059 15.2453 4.75928 15.0176L4.74951 14.917V14.333C4.74969 13.7351 5.23465 13.2504 5.83252 13.25H6.4165ZM9.44385 13.2559C9.98989 13.3114 10.4163 13.7723 10.4165 14.333V14.917C10.4163 15.1929 10.1924 15.4168 9.9165 15.417C9.64065 15.4168 9.41668 15.1929 9.4165 14.917V14.333C9.41637 14.2988 9.39528 14.2696 9.36572 14.2568L9.33252 14.25H8.74951C8.47355 14.2498 8.24951 14.026 8.24951 13.75C8.24951 13.474 8.47355 13.2502 8.74951 13.25H9.33252L9.44385 13.2559ZM14.5835 13.25C14.8595 13.2502 15.0835 13.474 15.0835 13.75C15.0835 14.026 14.8595 14.2498 14.5835 14.25H13.9995C13.9537 14.2502 13.9167 14.2872 13.9165 14.333V14.917L13.9067 15.0176C13.8601 15.2454 13.6581 15.417 13.4165 15.417C13.1749 15.417 12.9729 15.2454 12.9263 15.0176L12.9165 14.917V14.333C12.9167 13.735 13.4015 13.2502 13.9995 13.25H14.5835ZM17.6108 13.2559C18.1569 13.3114 18.5833 13.7723 18.5835 14.333V14.917C18.5833 15.1929 18.3594 15.4168 18.0835 15.417C17.8075 15.417 17.5837 15.193 17.5835 14.917V14.333C17.5834 14.2988 17.5623 14.2696 17.5327 14.2568L17.4995 14.25H16.9165C16.6404 14.25 16.4165 14.0261 16.4165 13.75C16.4165 13.4739 16.6404 13.25 16.9165 13.25H17.4995L17.6108 13.2559ZM9.33252 5.08301C9.93061 5.08301 10.4161 5.56802 10.4165 6.16602V9.66602C10.4165 10.2643 9.93083 10.75 9.33252 10.75H5.83252C5.23454 10.7496 4.74951 10.2641 4.74951 9.66602V6.16602C4.74987 5.56825 5.23477 5.0834 5.83252 5.08301H9.33252ZM13.4165 8.58301C13.6925 8.58301 13.9163 8.80702 13.9165 9.08301V9.66602C13.9165 9.71193 13.9536 9.74982 13.9995 9.75H14.5835C14.8594 9.75018 15.0833 9.97412 15.0835 10.25C15.0833 10.5259 14.8594 10.7498 14.5835 10.75H13.9995C13.4014 10.7498 12.9165 10.2642 12.9165 9.66602V9.08301C12.9167 8.80702 13.1405 8.58301 13.4165 8.58301ZM18.0835 8.58301C18.3594 8.58318 18.5833 8.80713 18.5835 9.08301V9.66602C18.5835 10.2643 18.0978 10.75 17.4995 10.75H16.9165C16.6405 10.75 16.4167 10.526 16.4165 10.25C16.4167 9.97402 16.6405 9.75 16.9165 9.75H17.4995C17.5455 9.75 17.5835 9.71204 17.5835 9.66602V9.08301C17.5837 8.80702 17.8075 8.58301 18.0835 8.58301ZM5.83252 6.08301C5.78705 6.08339 5.74987 6.12054 5.74951 6.16602V9.66602C5.74951 9.7118 5.78683 9.74961 5.83252 9.75H9.33252C9.37854 9.75 9.4165 9.71204 9.4165 9.66602V6.16602C9.41614 6.1203 9.37832 6.08301 9.33252 6.08301H5.83252ZM14.5835 5.08301C14.8594 5.08318 15.0833 5.30713 15.0835 5.58301C15.0835 5.85904 14.8595 6.08283 14.5835 6.08301H13.9995C13.9539 6.08318 13.9169 6.12041 13.9165 6.16602V6.75L13.9067 6.85059C13.8601 7.0784 13.6581 7.25 13.4165 7.25C13.1749 7.25 12.9729 7.0784 12.9263 6.85059L12.9165 6.75V6.16602C12.9169 5.56812 13.4016 5.08318 13.9995 5.08301H14.5835ZM17.6108 5.08887C18.1568 5.14444 18.5832 5.60549 18.5835 6.16602V6.75C18.5833 7.02588 18.3594 7.24982 18.0835 7.25C17.8075 7.25 17.5837 7.02599 17.5835 6.75V6.16602C17.5832 6.13197 17.5622 6.10252 17.5327 6.08984L17.4995 6.08301H16.9165C16.6404 6.08301 16.4165 5.85915 16.4165 5.58301C16.4167 5.30702 16.6405 5.08301 16.9165 5.08301H17.4995L17.6108 5.08887Z" fill="var(--fill-0, white)"/>
</g>
</svg>
