<svg width="24" height="24" viewBox="0 0 24 24" fill="none" xmlns="http://www.w3.org/2000/svg">
<path d="M14.535 11.087L18.558 12.661C20.878 13.568 22.038 14.022 21.999 14.742C21.961 15.462 20.75 15.792 18.329 16.452C17.608 16.649 17.247 16.748 16.998 16.998C16.748 17.248 16.649 17.608 16.453 18.328C15.793 20.75 15.463 21.961 14.743 21.999C14.023 22.038 13.568 20.878 12.661 18.558L11.086 14.535C10.136 12.106 9.661 10.892 10.276 10.276C10.892 9.66103 12.106 10.136 14.536 11.086L14.535 11.087Z" stroke="currentColor" stroke-width="1.5" stroke-linejoin="round"/>
<path d="M8.506 2.13997C9.49802 1.95041 10.517 1.95041 11.509 2.13997M8.506 17.876C8.83266 17.938 9.16633 17.9796 9.507 18.001M2.141 11.511C1.95131 10.5186 1.95131 9.49932 2.141 8.50697M17.875 8.50697C17.937 8.83364 17.9787 9.16731 18 9.50797M14.509 3.38397C15.3443 3.95131 16.0647 4.67167 16.632 5.50697M5.506 16.632C4.67069 16.0646 3.95034 15.3443 3.383 14.509M3.383 5.50597C3.95034 4.67067 4.67069 3.95031 5.506 3.38297" stroke="currentColor" stroke-width="1.5" stroke-linecap="round" stroke-linejoin="round"/>
</svg>
