<svg preserveAspectRatio="none" width="100%" height="100%" overflow="visible" style="display: block;" viewBox="0 0 24 24" fill="none" xmlns="http://www.w3.org/2000/svg">
<g id="Icon">
<path id="Vector" d="M12.11 13.956C11.67 12.835 12.728 11.726 13.848 12.071L13.956 12.109L18.106 13.739L18.221 13.79C19.357 14.346 19.248 16.044 18.003 16.427L16.798 16.799L16.428 18.004C16.031 19.294 14.232 19.36 13.739 18.106L12.11 13.956ZM13.59 13.04C13.5132 13.0102 13.4293 13.0033 13.3486 13.0203C13.2679 13.0373 13.194 13.0774 13.1357 13.1357C13.0774 13.194 13.0373 13.2679 13.0203 13.3486C13.0033 13.4293 13.0102 13.5132 13.04 13.59L14.67 17.74C14.808 18.09 15.288 18.096 15.445 17.778L15.472 17.71L15.998 15.999L17.709 15.472C17.7933 15.4462 17.8676 15.3948 17.9214 15.3249C17.9752 15.255 18.0059 15.1701 18.0093 15.082C18.0128 14.9939 17.9887 14.9069 17.9404 14.833C17.8921 14.7592 17.8221 14.7022 17.74 14.67L13.59 13.04ZM16.5 6C16.8978 6 17.2794 6.15804 17.5607 6.43934C17.842 6.72064 18 7.10218 18 7.5V8.5C18 8.89782 17.842 9.27936 17.5607 9.56066C17.2794 9.84196 16.8978 10 16.5 10H10V16.5C10 16.8978 9.84196 17.2794 9.56066 17.5607C9.27936 17.842 8.89782 18 8.5 18H7.5C7.10218 18 6.72064 17.842 6.43934 17.5607C6.15804 17.2794 6 16.8978 6 16.5V7.5C6 7.10218 6.15804 6.72064 6.43934 6.43934C6.72064 6.15804 7.10218 6 7.5 6H16.5ZM7 16.5C7 16.6326 7.05268 16.7598 7.14645 16.8536C7.24021 16.9473 7.36739 17 7.5 17H8.5C8.63261 17 8.75979 16.9473 8.85355 16.8536C8.94732 16.7598 9 16.6326 9 16.5V15H8.5C8.36739 15 8.24021 14.9473 8.14645 14.8536C8.05268 14.7598 8 14.6326 8 14.5C8 14.3674 8.05268 14.2402 8.14645 14.1464C8.24021 14.0527 8.36739 14 8.5 14H9V13H8.5C8.36739 13 8.24021 12.9473 8.14645 12.8536C8.05268 12.7598 8 12.6326 8 12.5C8 12.3674 8.05268 12.2402 8.14645 12.1464C8.24021 12.0527 8.36739 12 8.5 12H9V10H7V16.5ZM7.5 7C7.36739 7 7.24021 7.05268 7.14645 7.14645C7.05268 7.24021 7 7.36739 7 7.5V9H9V7H7.5ZM10 9H12V8.5C12 8.36739 12.0527 8.24021 12.1464 8.14645C12.2402 8.05268 12.3674 8 12.5 8C12.6326 8 12.7598 8.05268 12.8536 8.14645C12.9473 8.24021 13 8.36739 13 8.5V9H14V8.5C14 8.36739 14.0527 8.24021 14.1464 8.14645C14.2402 8.05268 14.3674 8 14.5 8C14.6326 8 14.7598 8.05268 14.8536 8.14645C14.9473 8.24021 15 8.36739 15 8.5V9H16.5C16.6326 9 16.7598 8.94732 16.8536 8.85355C16.9473 8.75979 17 8.63261 17 8.5V7.5C17 7.36739 16.9473 7.24021 16.8536 7.14645C16.7598 7.05268 16.6326 7 16.5 7H10V9Z" fill="var(--fill-0, white)" fill-opacity="0.698"/>
</g>
</svg>