<svg width="24" height="24" viewBox="0 0 24 24" fill="none" xmlns="http://www.w3.org/2000/svg">
<path d="M15 9H21V3M20.488 15C19.8675 16.7552 18.7179 18.2747 17.1978 19.3493C15.6776 20.4238 13.8616 21.0006 12 21C10.3729 20.9996 8.77632 20.558 7.38018 19.7224C5.98405 18.8867 4.84057 17.6882 4.07143 16.2543C3.30229 14.8204 2.93626 13.2049 3.01227 11.5795C3.08828 9.9542 3.60351 8.37986 4.50312 7.02405C5.40273 5.66824 6.65307 4.58167 8.12111 3.87995C9.58914 3.17824 11.2199 2.88764 12.84 3.03906C14.4601 3.19049 16.0088 3.77828 17.3213 4.73989C18.6339 5.7015 19.6612 7.00096 20.294 8.5" stroke="currentColor" stroke-width="1.5" stroke-linecap="round" stroke-linejoin="round"/>
</svg>
