<svg preserveAspectRatio="none" width="100%" height="100%" overflow="visible" style="display: block;" viewBox="0 0 24 24" fill="none" xmlns="http://www.w3.org/2000/svg">
<g id="Minimize Ul" opacity="0.5">
<path id="Vector" d="M17.653 7.008C18.0224 7.04587 18.3646 7.2194 18.6134 7.495C18.8622 7.7706 19 8.12869 19 8.5V15.5C19 15.8713 18.8622 16.2294 18.6134 16.505C18.3646 16.7806 18.0224 16.9541 17.653 16.992L17.5 17H6.5C6.12869 17 5.7706 16.8622 5.495 16.6134C5.2194 16.3646 5.04587 16.0224 5.008 15.653L5 15.5V8.5C5 8.10218 5.15804 7.72064 5.43934 7.43934C5.72064 7.15804 6.10218 7 6.5 7H17.5L17.653 7.008ZM6.5 8C6.36739 8 6.24021 8.05268 6.14645 8.14645C6.05268 8.24021 6 8.36739 6 8.5V15.5C6 15.6326 6.05268 15.7598 6.14645 15.8536C6.24021 15.9473 6.36739 16 6.5 16H9V8H6.5ZM10 16H17.5C17.6326 16 17.7598 15.9473 17.8536 15.8536C17.9473 15.7598 18 15.6326 18 15.5V8.5C18 8.36739 17.9473 8.24021 17.8536 8.14645C17.7598 8.05268 17.6326 8 17.5 8H10V16Z" fill="var(--fill-0, white)"/>
</g>
</svg>