<svg width="16" height="16" viewBox="0 0 14 14" fill="none" xmlns="http://www.w3.org/2000/svg"><path d="M12.25 5.54167V4.55C12.25 3.56991 12.25 3.07986 12.0593 2.70552C11.8915 2.37623 11.6238 2.10852 11.2945 1.94074C10.9201 1.75 10.4301 1.75 9.45 1.75H4.55C3.56991 1.75 3.07986 1.75 2.70552 1.94074C2.37623 2.10852 2.10852 2.37623 1.94074 2.70552C1.75 3.07986 1.75 3.56991 1.75 4.55V9.45C1.75 10.4301 1.75 10.9201 1.94074 11.2945C2.10852 11.6238 2.37623 11.8915 2.70552 12.0593C3.07986 12.25 3.56991 12.25 4.55 12.25H5.54167M10.142 10.3316L9.15128 12.1714C8.98934 12.4721 8.90838 12.6225 8.80969 12.6618C8.72402 12.6958 8.62728 12.6874 8.5488 12.639C8.45842 12.5832 8.40474 12.4211 8.29738 12.0968L6.70856 7.29826C6.61455 7.01432 6.56754 6.87235 6.60134 6.7778C6.63076 6.69552 6.69552 6.63076 6.7778 6.60134C6.87235 6.56754 7.01432 6.61455 7.29826 6.70857L12.0968 8.29739C12.4211 8.40475 12.5832 8.45843 12.639 8.54882C12.6874 8.6273 12.6958 8.72404 12.6617 8.80971C12.6225 8.90839 12.4721 8.98936 12.1714 9.15129L10.3316 10.142C10.2858 10.1666 10.2629 10.179 10.2428 10.1948C10.225 10.2089 10.2089 10.225 10.1948 10.2428C10.179 10.2629 10.1666 10.2858 10.142 10.3316Z" stroke="currentColor" stroke-width="0.875" stroke-linecap="round" stroke-linejoin="round"/></svg>