<svg width="16" height="16" viewBox="0 0 14 14" fill="none" xmlns="http://www.w3.org/2000/svg"><g clip-path="url(#clip0_icon)"><path d="M5.24996 2.04163V1.16663M2.95201 2.95201L2.33329 2.33329M2.95201 7.58329L2.33329 8.20201M7.58329 2.95201L8.20201 2.33329M2.04163 5.24996H1.16663M9.25424 9.44388L7.80072 12.1432C7.63467 12.4516 7.55164 12.6058 7.45175 12.6448C7.36506 12.6786 7.26743 12.6691 7.18894 12.6191C7.09851 12.5614 7.04696 12.3941 6.94385 12.0594L4.92632 5.50969C4.84209 5.23625 4.79998 5.09954 4.83386 5.0072C4.86338 4.92677 4.92677 4.86338 5.0072 4.83387C5.09954 4.79998 5.23625 4.84209 5.50969 4.92632L12.0593 6.94387C12.3941 7.04698 12.5614 7.09853 12.619 7.18897C12.6691 7.26745 12.6786 7.36509 12.6448 7.45177C12.6058 7.55167 12.4516 7.63469 12.1432 7.80074L9.44388 9.25424C9.39805 9.27891 9.37514 9.29125 9.35508 9.3071C9.33728 9.32117 9.32117 9.33728 9.3071 9.35508C9.29125 9.37514 9.27891 9.39805 9.25424 9.44388Z" stroke="currentColor" stroke-width="0.875" stroke-linecap="round" stroke-linejoin="round"/></g><defs><clipPath id="clip0_icon"><rect width="14" height="14" fill="white"/></clipPath></defs></svg>