<svg width="20" height="20" viewBox="0 0 20 20" fill="none" xmlns="http://www.w3.org/2000/svg"><path d="M10.028 10.568a.417.417 0 0 1 .54-.54l7.5 2.917a.417.417 0 0 1-.028.79l-2.87.89a1.25 1.25 0 0 0-.793.793l-.89 2.87a.417.417 0 0 1-.789-.027l-2.917-7.5Z" stroke="currentColor" stroke-width="1.25" stroke-linecap="round" stroke-linejoin="round"/><path d="M17.5 9.167V4.167a1.667 1.667 0 0 0-1.667-1.667H4.167A1.667 1.667 0 0 0 2.5 4.167v11.666a1.667 1.667 0 0 0 1.667 1.667h5" stroke="currentColor" stroke-width="1.25" stroke-linecap="round" stroke-linejoin="round"/></svg>