<svg width="20" height="20" viewBox="0 0 20 20" fill="none" xmlns="http://www.w3.org/2000/svg"><path d="M17.7501 12.7501C17.9365 12.9359 18.0845 13.1567 18.1854 13.3998C18.2864 13.6429 18.3383 14.1667 18.3383 14.1667C18.3383 14.43 18.2864 14.6906 18.1854 14.9337C18.0845 15.1768 17.9365 15.3976 17.7501 15.5834L15.5834 17.7501C15.3976 17.9365 15.1768 18.0845 14.9337 18.1854C14.6906 18.2864 14.43 18.3383 14.1667 18.3383C13.9035 18.3383 13.6429 18.2864 13.3998 18.1854C13.1567 18.0845 12.9359 17.9365 12.7501 17.7501L2.25008 7.25008C1.87554 6.87373 1.66528 6.36437 1.66528 5.83341C1.66528 5.30245 1.87554 4.7931 2.25008 4.41675L4.41675 2.25008C4.7931 1.87554 5.30245 1.66528 5.83341 1.66528C6.36437 1.66528 6.87373 1.87554 7.25008 2.25008L17.7501 12.7501Z" stroke="currentColor" stroke-width="1.25" stroke-linecap="round" stroke-linejoin="round"/><path d="M12.0834 10.4167L13.75 8.75" stroke="currentColor" stroke-width="1.25" stroke-linecap="round" stroke-linejoin="round"/><path d="M9.58337 7.91667L11.25 6.25" stroke="currentColor" stroke-width="1.25" stroke-linecap="round" stroke-linejoin="round"/><path d="M7.08337 5.41667L8.75004 3.75" stroke="currentColor" stroke-width="1.25" stroke-linecap="round" stroke-linejoin="round"/><path d="M14.5834 12.9167L16.25 11.25" stroke="currentColor" stroke-width="1.25" stroke-linecap="round" stroke-linejoin="round"/></svg>