<svg width="20" height="20" viewBox="0 0 20 20" fill="none" xmlns="http://www.w3.org/2000/svg"><path opacity="0.12" d="M9.99996 13.3333C11.8409 13.3333 13.3333 11.8409 13.3333 9.99996C13.3333 8.15901 11.8409 6.66663 9.99996 6.66663C8.15901 6.66663 6.66663 8.15901 6.66663 9.99996C6.66663 11.8409 8.15901 13.3333 9.99996 13.3333Z" fill="currentColor"/><path d="M1.66663 6.5C1.66663 5.09987 1.66663 4.3998 1.93911 3.86502C2.17879 3.39462 2.56124 3.01217 3.03165 2.77248C3.56643 2.5 4.26649 2.5 5.66663 2.5H14.3333C15.7334 2.5 16.4335 2.5 16.9683 2.77248C17.4387 3.01217 17.8211 3.39462 18.0608 3.86502C18.3333 4.3998 18.3333 5.09987 18.3333 6.5V13.5C18.3333 14.9001 18.3333 15.6002 18.0608 16.135C17.8211 16.6054 17.4387 16.9878 16.9683 17.2275C16.4335 17.5 15.7334 17.5 14.3333 17.5H5.66663C4.26649 17.5 3.56643 17.5 3.03165 17.2275C2.56124 16.9878 2.17879 16.6054 1.93911 16.135C1.66663 15.6002 1.66663 14.9001 1.66663 13.5V6.5Z" stroke="currentColor" stroke-width="1.25" stroke-linecap="round" stroke-linejoin="round"/><path d="M9.99996 13.3333C11.8409 13.3333 13.3333 11.8409 13.3333 10C13.3333 8.15905 11.8409 6.66667 9.99996 6.66667C8.15901 6.66667 6.66663 8.15905 6.66663 10C6.66663 11.8409 8.15901 13.3333 9.99996 13.3333Z" stroke="currentColor" stroke-width="1.25" stroke-linecap="round" stroke-linejoin="round"/></svg>