<svg width="20" height="20" viewBox="0 0 20 20" fill="none" xmlns="http://www.w3.org/2000/svg"><path d="M13.3334 3.33337H15C15.4421 3.33337 15.866 3.50897 16.1786 3.82153C16.4911 4.13409 16.6667 4.55801 16.6667 5.00004V6.66671" stroke="currentColor" stroke-width="1.25" stroke-linecap="round" stroke-linejoin="round"/><path d="M17.7834 13.0533C17.9478 12.8889 18.0782 12.6938 18.1671 12.479C18.2561 12.2643 18.3019 12.0341 18.3019 11.8016C18.3019 11.5692 18.2561 11.339 18.1671 11.1242C18.0782 10.9095 17.9478 10.7143 17.7834 10.55C17.619 10.3856 17.4239 10.2552 17.2091 10.1662C16.9944 10.0773 16.7642 10.0315 16.5317 10.0315C16.2993 10.0315 16.0691 10.0773 15.8543 10.1662C15.6396 10.2552 15.4444 10.3856 15.2801 10.55L11.1051 14.7266C10.9069 14.9246 10.7619 15.1694 10.6834 15.4383L9.9859 17.83C9.96499 17.9017 9.96374 17.9777 9.98227 18.05C10.0008 18.1224 10.0385 18.1884 10.0913 18.2412C10.1441 18.2941 10.2101 18.3317 10.2825 18.3502C10.3549 18.3688 10.4309 18.3675 10.5026 18.3466L12.8942 17.6491C13.1631 17.5706 13.4079 17.4256 13.6059 17.2275L17.7834 13.0533Z" stroke="currentColor" stroke-width="1.25" stroke-linecap="round" stroke-linejoin="round"/><path d="M6.66671 18.3334H5.00004C4.55801 18.3334 4.13409 18.1578 3.82153 17.8452C3.50897 17.5327 3.33337 17.1087 3.33337 16.6667V5.00004C3.33337 4.55801 3.50897 4.13409 3.82153 3.82153C4.13409 3.50897 4.55801 3.33337 5.00004 3.33337H6.66671" stroke="currentColor" stroke-width="1.25" stroke-linecap="round" stroke-linejoin="round"/><path d="M12.5 1.66663H7.49996C7.03972 1.66663 6.66663 2.03972 6.66663 2.49996V4.16663C6.66663 4.62686 7.03972 4.99996 7.49996 4.99996H12.5C12.9602 4.99996 13.3333 4.62686 13.3333 4.16663V2.49996C13.3333 2.03972 12.9602 1.66663 12.5 1.66663Z" stroke="currentColor" stroke-width="1.25" stroke-linecap="round" stroke-linejoin="round"/></svg>