<svg width="20" height="20" viewBox="0 0 20 20" fill="none" xmlns="http://www.w3.org/2000/svg"><path d="M13.0892 17.7442C12.9329 17.9004 12.721 17.9882 12.5 17.9882C12.2791 17.9882 12.0671 17.9004 11.9109 17.7442L10.5892 16.4225C10.433 16.2663 10.3452 16.0543 10.3452 15.8334C10.3452 15.6124 10.433 15.4005 10.5892 15.2442L15.2442 10.5892C15.4005 10.433 15.6124 10.3452 15.8334 10.3452C16.0543 10.3452 16.2663 10.433 16.4225 10.5892L17.7442 11.9109C17.9004 12.0671 17.9882 12.2791 17.9882 12.5C17.9882 12.721 17.9004 12.9329 17.7442 13.0892L13.0892 17.7442Z" stroke="currentColor" stroke-width="1.25" stroke-linecap="round" stroke-linejoin="round"/><path d="M15 10.8333L13.8541 5.10496C13.823 4.94911 13.7479 4.80543 13.6377 4.69085C13.5276 4.57627 13.387 4.49558 13.2325 4.4583L2.6958 1.68996C2.55699 1.6564 2.41188 1.65908 2.2744 1.69773C2.13692 1.73639 2.01169 1.80972 1.9107 1.9107C1.80972 2.01169 1.73639 2.13692 1.69773 2.2744C1.65908 2.41188 1.6564 2.55699 1.68996 2.6958L4.4583 13.2325C4.49558 13.387 4.57627 13.5276 4.69085 13.6377C4.80543 13.7479 4.94911 13.823 5.10496 13.8541L10.8333 15" stroke="currentColor" stroke-width="1.25" stroke-linecap="round" stroke-linejoin="round"/><path d="M1.91675 1.91675L7.98841 7.98841" stroke="currentColor" stroke-width="1.25" stroke-linecap="round" stroke-linejoin="round"/><path d="M9.16667 10.8333C10.0871 10.8333 10.8333 10.0871 10.8333 9.16667C10.8333 8.24619 10.0871 7.5 9.16667 7.5C8.24619 7.5 7.5 8.24619 7.5 9.16667C7.5 10.0871 8.24619 10.8333 9.16667 10.8333Z" stroke="currentColor" stroke-width="1.25" stroke-linecap="round" stroke-linejoin="round"/></svg>